<svg width="504" height="262" viewBox="0 0 504 262" fill="none" xmlns="http://www.w3.org/2000/svg">
<rect width="504" height="130" transform="translate(0 100)" fill="white"/>
<mask id="path-1-outside-1_692_6239" maskUnits="userSpaceOnUse" x="0" y="33" width="461" height="126" fill="black">
<rect fill="white" y="33" width="461" height="126"/>
<path d="M7.125 151V41H36.1875C42.2708 41 47.0833 42.3542 50.625 45.0625C54.2083 47.7708 56.7708 51.625 58.3125 56.625C59.8542 61.625 60.625 67.5833 60.625 74.5C60.625 81.1667 59.9792 86.9792 58.6875 91.9375C57.3958 96.8542 55.0833 100.667 51.75 103.375C48.4583 106.083 43.7708 107.438 37.6875 107.438H28.75V151H7.125ZM28.75 87.6875H30C34.0833 87.6875 36.5833 86.5417 37.5 84.25C38.4167 81.9583 38.875 78.5833 38.875 74.125C38.875 69.9583 38.4167 66.75 37.5 64.5C36.625 62.2083 34.5208 61.0625 31.1875 61.0625H28.75V87.6875ZM93.875 152C85.0833 152 78.3542 149.354 73.6875 144.062C69.0625 138.729 66.75 131.042 66.75 121V68.75C66.75 59.3333 69.0417 52.1875 73.625 47.3125C78.25 42.4375 85 40 93.875 40C102.75 40 109.479 42.4375 114.062 47.3125C118.688 52.1875 121 59.3333 121 68.75V121C121 131.042 118.667 138.729 114 144.062C109.375 149.354 102.667 152 93.875 152ZM94.0625 131.75C97.3958 131.75 99.0625 128.521 99.0625 122.062V68.375C99.0625 62.9583 97.4375 60.25 94.1875 60.25C90.5208 60.25 88.6875 63.0208 88.6875 68.5625V122.188C88.6875 125.604 89.1042 128.062 89.9375 129.562C90.7708 131.021 92.1458 131.75 94.0625 131.75ZM129.875 151V41H158.938C165.021 41 169.833 42.3542 173.375 45.0625C176.958 47.7708 179.521 51.625 181.062 56.625C182.604 61.625 183.375 67.5833 183.375 74.5C183.375 81.1667 182.729 86.9792 181.438 91.9375C180.146 96.8542 177.833 100.667 174.5 103.375C171.208 106.083 166.521 107.438 160.438 107.438H151.5V151H129.875ZM151.5 87.6875H152.75C156.833 87.6875 159.333 86.5417 160.25 84.25C161.167 81.9583 161.625 78.5833 161.625 74.125C161.625 69.9583 161.167 66.75 160.25 64.5C159.375 62.2083 157.271 61.0625 153.938 61.0625H151.5V87.6875ZM190.375 151V41H223.875L233.125 108.062L242.312 41H276.125V151H256V71.75L243.375 151H223.625L210.25 71.75V151H190.375ZM282.875 151L293.5 41H330.812L341.25 151H320.438L318.875 133.25H305.625L304.25 151H282.875ZM307.188 115.688H317.188L312.375 59.75H311.375L307.188 115.688ZM348 151V41H381.75C387.375 41 391.625 42.2917 394.5 44.875C397.375 47.4167 399.292 51 400.25 55.625C401.25 60.2083 401.75 65.6042 401.75 71.8125C401.75 77.8125 400.979 82.6042 399.438 86.1875C397.938 89.7708 395.083 92.25 390.875 93.625C394.333 94.3333 396.75 96.0625 398.125 98.8125C399.542 101.521 400.25 105.042 400.25 109.375V151H378.562V107.938C378.562 104.729 377.896 102.75 376.562 102C375.271 101.208 373.167 100.812 370.25 100.812V151H348ZM370.375 81.75H375.688C378.729 81.75 380.25 78.4375 380.25 71.8125C380.25 67.5208 379.917 64.7083 379.25 63.375C378.583 62.0417 377.333 61.375 375.5 61.375H370.375V81.75ZM418.438 151V62.125H405.375V41H453.5V62.125H440.438V151H418.438Z"/>
</mask>
<path d="M7.125 151V41H36.1875C42.2708 41 47.0833 42.3542 50.625 45.0625C54.2083 47.7708 56.7708 51.625 58.3125 56.625C59.8542 61.625 60.625 67.5833 60.625 74.5C60.625 81.1667 59.9792 86.9792 58.6875 91.9375C57.3958 96.8542 55.0833 100.667 51.75 103.375C48.4583 106.083 43.7708 107.438 37.6875 107.438H28.75V151H7.125ZM28.75 87.6875H30C34.0833 87.6875 36.5833 86.5417 37.5 84.25C38.4167 81.9583 38.875 78.5833 38.875 74.125C38.875 69.9583 38.4167 66.75 37.5 64.5C36.625 62.2083 34.5208 61.0625 31.1875 61.0625H28.75V87.6875ZM93.875 152C85.0833 152 78.3542 149.354 73.6875 144.062C69.0625 138.729 66.75 131.042 66.75 121V68.75C66.75 59.3333 69.0417 52.1875 73.625 47.3125C78.25 42.4375 85 40 93.875 40C102.75 40 109.479 42.4375 114.062 47.3125C118.688 52.1875 121 59.3333 121 68.75V121C121 131.042 118.667 138.729 114 144.062C109.375 149.354 102.667 152 93.875 152ZM94.0625 131.75C97.3958 131.75 99.0625 128.521 99.0625 122.062V68.375C99.0625 62.9583 97.4375 60.25 94.1875 60.25C90.5208 60.25 88.6875 63.0208 88.6875 68.5625V122.188C88.6875 125.604 89.1042 128.062 89.9375 129.562C90.7708 131.021 92.1458 131.75 94.0625 131.75ZM129.875 151V41H158.938C165.021 41 169.833 42.3542 173.375 45.0625C176.958 47.7708 179.521 51.625 181.062 56.625C182.604 61.625 183.375 67.5833 183.375 74.5C183.375 81.1667 182.729 86.9792 181.438 91.9375C180.146 96.8542 177.833 100.667 174.5 103.375C171.208 106.083 166.521 107.438 160.438 107.438H151.5V151H129.875ZM151.5 87.6875H152.75C156.833 87.6875 159.333 86.5417 160.25 84.25C161.167 81.9583 161.625 78.5833 161.625 74.125C161.625 69.9583 161.167 66.75 160.25 64.5C159.375 62.2083 157.271 61.0625 153.938 61.0625H151.5V87.6875ZM190.375 151V41H223.875L233.125 108.062L242.312 41H276.125V151H256V71.75L243.375 151H223.625L210.25 71.75V151H190.375ZM282.875 151L293.5 41H330.812L341.25 151H320.438L318.875 133.25H305.625L304.25 151H282.875ZM307.188 115.688H317.188L312.375 59.75H311.375L307.188 115.688ZM348 151V41H381.75C387.375 41 391.625 42.2917 394.5 44.875C397.375 47.4167 399.292 51 400.25 55.625C401.25 60.2083 401.75 65.6042 401.75 71.8125C401.75 77.8125 400.979 82.6042 399.438 86.1875C397.938 89.7708 395.083 92.25 390.875 93.625C394.333 94.3333 396.75 96.0625 398.125 98.8125C399.542 101.521 400.25 105.042 400.25 109.375V151H378.562V107.938C378.562 104.729 377.896 102.75 376.562 102C375.271 101.208 373.167 100.812 370.25 100.812V151H348ZM370.375 81.75H375.688C378.729 81.75 380.25 78.4375 380.25 71.8125C380.25 67.5208 379.917 64.7083 379.25 63.375C378.583 62.0417 377.333 61.375 375.5 61.375H370.375V81.75ZM418.438 151V62.125H405.375V41H453.5V62.125H440.438V151H418.438Z" fill="#E02121"/>
<path d="M7.125 151H0.125V158H7.125V151ZM7.125 41V34H0.125V41H7.125ZM50.625 45.0625L46.3728 50.623L46.3885 50.635L46.4042 50.6469L50.625 45.0625ZM58.6875 91.9375L65.4578 93.7161L65.4596 93.7091L65.4614 93.7021L58.6875 91.9375ZM51.75 103.375L47.3359 97.9422L47.3191 97.9558L47.3024 97.9695L51.75 103.375ZM28.75 107.438V100.438H21.75V107.438H28.75ZM28.75 151V158H35.75V151H28.75ZM28.75 87.6875H21.75V94.6875H28.75V87.6875ZM37.5 64.5L30.9605 66.9969L30.9881 67.0693L31.0174 67.1411L37.5 64.5ZM28.75 61.0625V54.0625H21.75V61.0625H28.75ZM14.125 151V41H0.125V151H14.125ZM7.125 48H36.1875V34H7.125V48ZM36.1875 48C41.2868 48 44.4285 49.1362 46.3728 50.623L54.8772 39.502C49.7381 35.5722 43.2548 34 36.1875 34V48ZM46.4042 50.6469C48.6306 52.3296 50.4407 54.8523 51.6233 58.6875L65.0017 54.5625C63.1009 48.3977 59.7861 43.2121 54.8458 39.4781L46.4042 50.6469ZM51.6233 58.6875C52.9049 62.8441 53.625 68.0717 53.625 74.5H67.625C67.625 67.095 66.8035 60.4059 65.0017 54.5625L51.6233 58.6875ZM53.625 74.5C53.625 80.7393 53.018 85.9334 51.9136 90.1729L65.4614 93.7021C66.9404 88.025 67.625 81.5941 67.625 74.5H53.625ZM51.9172 90.1589C50.9318 93.91 49.3154 96.3338 47.3359 97.9422L56.1641 108.808C60.8513 104.999 63.8599 99.7983 65.4578 93.7161L51.9172 90.1589ZM47.3024 97.9695C45.7034 99.2852 42.8275 100.438 37.6875 100.438V114.438C44.7141 114.438 51.2132 112.882 56.1976 108.78L47.3024 97.9695ZM37.6875 100.438H28.75V114.438H37.6875V100.438ZM21.75 107.438V151H35.75V107.438H21.75ZM28.75 144H7.125V158H28.75V144ZM28.75 94.6875H30V80.6875H28.75V94.6875ZM30 94.6875C34.8629 94.6875 41.4148 93.311 43.9993 86.8497L31.0007 81.6503C31.1143 81.3663 31.3022 81.0694 31.5509 80.8192C31.7895 80.5791 31.9849 80.4812 32.0209 80.4647C32.045 80.4536 31.9177 80.515 31.5653 80.5763C31.2145 80.6374 30.7034 80.6875 30 80.6875V94.6875ZM43.9993 86.8497C45.4138 83.3136 45.875 78.8734 45.875 74.125H31.875C31.875 78.2933 31.4196 80.603 31.0007 81.6503L43.9993 86.8497ZM45.875 74.125C45.875 69.6072 45.4015 65.3416 43.9826 61.8589L31.0174 67.1411C31.4318 68.1584 31.875 70.3094 31.875 74.125H45.875ZM44.0395 62.0031C43.0226 59.3396 41.1681 57.1655 38.6133 55.7743C36.2108 54.466 33.5901 54.0625 31.1875 54.0625V68.0625C31.6286 68.0625 31.8915 68.1012 32.0136 68.1269C32.1315 68.1517 32.0756 68.1553 31.9179 68.0695C31.748 67.9769 31.5286 67.8173 31.3235 67.5806C31.12 67.3459 31.0103 67.1273 30.9605 66.9969L44.0395 62.0031ZM31.1875 54.0625H28.75V68.0625H31.1875V54.0625ZM21.75 61.0625V87.6875H35.75V61.0625H21.75ZM73.6875 144.062L68.399 148.649L68.4181 148.671L68.4374 148.692L73.6875 144.062ZM73.625 47.3125L68.5468 42.4947L68.5359 42.5061L68.525 42.5177L73.625 47.3125ZM114.062 47.3125L108.963 52.1073L108.973 52.1189L108.984 52.1303L114.062 47.3125ZM114 144.062L108.732 139.453L108.729 139.456L114 144.062ZM89.9375 129.562L83.8184 132.962L83.8389 132.999L83.8598 133.035L89.9375 129.562ZM93.875 145C86.5588 145 81.9591 142.859 78.9376 139.433L68.4374 148.692C74.7492 155.85 83.6078 159 93.875 159V145ZM78.976 139.476C75.8418 135.862 73.75 130.06 73.75 121H59.75C59.75 132.023 62.2832 141.596 68.399 148.649L78.976 139.476ZM73.75 121V68.75H59.75V121H73.75ZM73.75 68.75C73.75 60.3868 75.7833 55.2362 78.725 52.1073L68.525 42.5177C62.3 49.1388 59.75 58.2799 59.75 68.75H73.75ZM78.7032 52.1303C81.6206 49.0552 86.2766 47 93.875 47V33C83.7234 33 74.8794 35.8198 68.5468 42.4947L78.7032 52.1303ZM93.875 47C101.477 47 106.094 49.0566 108.963 52.1073L119.162 42.5177C112.864 35.8184 104.023 33 93.875 33V47ZM108.984 52.1303C111.954 55.2603 114 60.4019 114 68.75H128C128 58.2647 125.421 49.1147 119.141 42.4947L108.984 52.1303ZM114 68.75V121H128V68.75H114ZM114 121C114 130.047 111.894 135.839 108.732 139.453L119.268 148.672C125.439 141.619 128 132.037 128 121H114ZM108.729 139.456C105.756 142.858 101.194 145 93.875 145V159C104.139 159 112.994 155.85 119.271 148.669L108.729 139.456ZM94.0625 138.75C96.0761 138.75 98.1583 138.245 100.048 137.025C101.904 135.826 103.179 134.193 104.033 132.539C105.635 129.434 106.062 125.666 106.062 122.062H92.0625C92.0625 123.395 91.9751 124.395 91.8514 125.114C91.7246 125.851 91.588 126.126 91.5922 126.118C91.6128 126.078 91.8461 125.656 92.4523 125.264C93.0917 124.851 93.7156 124.75 94.0625 124.75V138.75ZM106.062 122.062V68.375H92.0625V122.062H106.062ZM106.062 68.375C106.062 65.1952 105.626 61.6466 103.846 58.6798C101.724 55.1433 98.184 53.25 94.1875 53.25V67.25C94.0086 67.25 93.5119 67.2053 92.9208 66.8769C92.3204 66.5433 91.9815 66.1163 91.8413 65.8827C91.7286 65.6949 91.8017 65.7328 91.8937 66.1931C91.9838 66.6435 92.0625 67.3498 92.0625 68.375H106.062ZM94.1875 53.25C90.2923 53.25 86.5885 54.8929 84.2247 58.4655C82.1965 61.5308 81.6875 65.2416 81.6875 68.5625H95.6875C95.6875 67.5411 95.774 66.8549 95.867 66.4334C95.9606 66.0087 96.0289 65.9964 95.9003 66.1907C95.7407 66.432 95.4175 66.7758 94.9307 67.021C94.4717 67.2522 94.1576 67.25 94.1875 67.25V53.25ZM81.6875 68.5625V122.188H95.6875V68.5625H81.6875ZM81.6875 122.188C81.6875 125.833 82.073 129.82 83.8184 132.962L96.0566 126.163C96.1572 126.344 96.032 126.193 95.9016 125.424C95.7777 124.693 95.6875 123.637 95.6875 122.188H81.6875ZM83.8598 133.035C86.1373 137.021 90.0599 138.75 94.0625 138.75V124.75C93.9866 124.75 94.3428 124.738 94.8733 125.019C95.4492 125.324 95.8287 125.763 96.0152 126.09L83.8598 133.035ZM129.875 151H122.875V158H129.875V151ZM129.875 41V34H122.875V41H129.875ZM173.375 45.0625L169.123 50.623L169.139 50.635L169.154 50.6469L173.375 45.0625ZM181.438 91.9375L188.208 93.7161L188.21 93.7091L188.211 93.7021L181.438 91.9375ZM174.5 103.375L170.086 97.9422L170.069 97.9558L170.052 97.9695L174.5 103.375ZM151.5 107.438V100.438H144.5V107.438H151.5ZM151.5 151V158H158.5V151H151.5ZM151.5 87.6875H144.5V94.6875H151.5V87.6875ZM160.25 64.5L153.71 66.9969L153.738 67.0693L153.767 67.1411L160.25 64.5ZM151.5 61.0625V54.0625H144.5V61.0625H151.5ZM136.875 151V41H122.875V151H136.875ZM129.875 48H158.938V34H129.875V48ZM158.938 48C164.037 48 167.179 49.1362 169.123 50.623L177.627 39.502C172.488 35.5722 166.005 34 158.938 34V48ZM169.154 50.6469C171.381 52.3296 173.191 54.8523 174.373 58.6875L187.752 54.5625C185.851 48.3977 182.536 43.2121 177.596 39.4781L169.154 50.6469ZM174.373 58.6875C175.655 62.8441 176.375 68.0717 176.375 74.5H190.375C190.375 67.095 189.553 60.4059 187.752 54.5625L174.373 58.6875ZM176.375 74.5C176.375 80.7393 175.768 85.9334 174.664 90.1729L188.211 93.7021C189.69 88.025 190.375 81.5941 190.375 74.5H176.375ZM174.667 90.1589C173.682 93.91 172.065 96.3338 170.086 97.9422L178.914 108.808C183.601 104.999 186.61 99.7983 188.208 93.7161L174.667 90.1589ZM170.052 97.9695C168.453 99.2852 165.578 100.438 160.438 100.438V114.438C167.464 114.438 173.963 112.882 178.948 108.78L170.052 97.9695ZM160.438 100.438H151.5V114.438H160.438V100.438ZM144.5 107.438V151H158.5V107.438H144.5ZM151.5 144H129.875V158H151.5V144ZM151.5 94.6875H152.75V80.6875H151.5V94.6875ZM152.75 94.6875C157.613 94.6875 164.165 93.311 166.749 86.8497L153.751 81.6503C153.864 81.3663 154.052 81.0694 154.301 80.8192C154.539 80.5791 154.735 80.4812 154.771 80.4647C154.795 80.4536 154.668 80.515 154.315 80.5763C153.964 80.6374 153.453 80.6875 152.75 80.6875V94.6875ZM166.749 86.8497C168.164 83.3136 168.625 78.8734 168.625 74.125H154.625C154.625 78.2933 154.17 80.603 153.751 81.6503L166.749 86.8497ZM168.625 74.125C168.625 69.6072 168.152 65.3416 166.733 61.8589L153.767 67.1411C154.182 68.1584 154.625 70.3094 154.625 74.125H168.625ZM166.79 62.0031C165.773 59.3396 163.918 57.1655 161.363 55.7743C158.961 54.466 156.34 54.0625 153.938 54.0625V68.0625C154.379 68.0625 154.642 68.1012 154.764 68.1269C154.881 68.1517 154.826 68.1553 154.668 68.0695C154.498 67.9769 154.279 67.8173 154.073 67.5806C153.87 67.3459 153.76 67.1273 153.71 66.9969L166.79 62.0031ZM153.938 54.0625H151.5V68.0625H153.938V54.0625ZM144.5 61.0625V87.6875H158.5V61.0625H144.5ZM190.375 151H183.375V158H190.375V151ZM190.375 41V34H183.375V41H190.375ZM223.875 41L230.809 40.0435L229.976 34H223.875V41ZM233.125 108.062L226.191 109.019L240.06 109.013L233.125 108.062ZM242.312 41V34H236.206L235.377 40.0499L242.312 41ZM276.125 41H283.125V34H276.125V41ZM276.125 151V158H283.125V151H276.125ZM256 151H249V158H256V151ZM256 71.75H263L249.087 70.6487L256 71.75ZM243.375 151V158H249.348L250.288 152.101L243.375 151ZM223.625 151L216.723 152.165L217.707 158H223.625V151ZM210.25 71.75L217.152 70.5851L203.25 71.75H210.25ZM210.25 151V158H217.25V151H210.25ZM197.375 151V41H183.375V151H197.375ZM190.375 48H223.875V34H190.375V48ZM216.941 41.9565L226.191 109.019L240.059 107.106L230.809 40.0435L216.941 41.9565ZM240.06 109.013L249.248 41.9501L235.377 40.0499L226.19 107.112L240.06 109.013ZM242.312 48H276.125V34H242.312V48ZM269.125 41V151H283.125V41H269.125ZM276.125 144H256V158H276.125V144ZM263 151V71.75H249V151H263ZM249.087 70.6487L236.462 149.899L250.288 152.101L262.913 72.8513L249.087 70.6487ZM243.375 144H223.625V158H243.375V144ZM230.527 149.835L217.152 70.5851L203.348 72.9149L216.723 152.165L230.527 149.835ZM203.25 71.75V151H217.25V71.75H203.25ZM210.25 144H190.375V158H210.25V144ZM282.875 151L275.907 150.327L275.166 158H282.875V151ZM293.5 41V34H287.144L286.532 40.327L293.5 41ZM330.812 41L337.781 40.3388L337.18 34H330.812V41ZM341.25 151V158H348.946L348.219 150.339L341.25 151ZM320.438 151L313.464 151.614L314.027 158H320.438V151ZM318.875 133.25L325.848 132.636L325.286 126.25H318.875V133.25ZM305.625 133.25V126.25H299.146L298.646 132.709L305.625 133.25ZM304.25 151V158H310.729L311.229 151.541L304.25 151ZM307.188 115.688L300.207 115.165L299.644 122.688H307.188V115.688ZM317.188 115.688V122.688H324.816L324.162 115.087L317.188 115.688ZM312.375 59.75L319.349 59.15L318.799 52.75H312.375V59.75ZM311.375 59.75V52.75H304.879L304.395 59.2274L311.375 59.75ZM289.843 151.673L300.468 41.673L286.532 40.327L275.907 150.327L289.843 151.673ZM293.5 48H330.812V34H293.5V48ZM323.844 41.6612L334.281 151.661L348.219 150.339L337.781 40.3388L323.844 41.6612ZM341.25 144H320.438V158H341.25V144ZM327.411 150.386L325.848 132.636L311.902 133.864L313.464 151.614L327.411 150.386ZM318.875 126.25H305.625V140.25H318.875V126.25ZM298.646 132.709L297.271 150.459L311.229 151.541L312.604 133.791L298.646 132.709ZM304.25 144H282.875V158H304.25V144ZM307.188 122.688H317.188V108.688H307.188V122.688ZM324.162 115.087L319.349 59.15L305.401 60.35L310.213 116.288L324.162 115.087ZM312.375 52.75H311.375V66.75H312.375V52.75ZM304.395 59.2274L300.207 115.165L314.168 116.21L318.355 60.2726L304.395 59.2274ZM348 151H341V158H348V151ZM348 41V34H341V41H348ZM394.5 44.875L389.821 50.0818L389.842 50.1007L389.864 50.1194L394.5 44.875ZM400.25 55.625L393.396 57.0453L393.403 57.0813L393.411 57.1172L400.25 55.625ZM399.438 86.1875L393.007 83.421L392.994 83.4527L392.98 83.4845L399.438 86.1875ZM390.875 93.625L388.701 86.9712L363.579 95.1795L389.47 100.483L390.875 93.625ZM398.125 98.8125L391.864 101.943L391.893 102L391.922 102.057L398.125 98.8125ZM400.25 151V158H407.25V151H400.25ZM378.562 151H371.562V158H378.562V151ZM376.562 102L372.905 107.968L373.016 108.037L373.131 108.101L376.562 102ZM370.25 100.812V93.8125H363.25V100.812H370.25ZM370.25 151V158H377.25V151H370.25ZM370.375 81.75H363.375V88.75H370.375V81.75ZM370.375 61.375V54.375H363.375V61.375H370.375ZM355 151V41H341V151H355ZM348 48H381.75V34H348V48ZM381.75 48C386.422 48 388.71 49.0828 389.821 50.0818L399.179 39.6682C394.54 35.5006 388.328 34 381.75 34V48ZM389.864 50.1194C391.365 51.4468 392.672 53.5525 393.396 57.0453L407.104 54.2047C405.911 48.4475 403.385 43.3865 399.136 39.6306L389.864 50.1194ZM393.411 57.1172C394.276 61.0823 394.75 65.9552 394.75 71.8125H408.75C408.75 65.2531 408.224 59.3344 407.089 54.1328L393.411 57.1172ZM394.75 71.8125C394.75 77.321 394.026 81.053 393.007 83.421L405.868 88.954C407.932 84.1553 408.75 78.304 408.75 71.8125H394.75ZM392.98 83.4845C392.381 84.9174 391.276 86.1297 388.701 86.9712L393.049 100.279C398.89 98.3703 403.494 94.6242 405.895 88.8905L392.98 83.4845ZM389.47 100.483C391.176 100.832 391.6 101.415 391.864 101.943L404.386 95.682C401.9 90.7097 397.49 87.8347 392.28 86.7674L389.47 100.483ZM391.922 102.057C392.643 103.434 393.25 105.729 393.25 109.375H407.25C407.25 104.355 406.441 99.6077 404.328 95.568L391.922 102.057ZM393.25 109.375V151H407.25V109.375H393.25ZM400.25 144H378.562V158H400.25V144ZM385.562 151V107.938H371.562V151H385.562ZM385.562 107.938C385.562 105.936 385.366 103.8 384.696 101.812C384.014 99.7866 382.646 97.3904 379.994 95.899L373.131 108.101C372.506 107.75 372.068 107.308 371.791 106.931C371.53 106.575 371.44 106.315 371.429 106.281C371.417 106.247 371.456 106.353 371.495 106.654C371.533 106.949 371.562 107.37 371.562 107.938H385.562ZM380.22 96.0318C377.209 94.1862 373.46 93.8125 370.25 93.8125V107.812C371.418 107.812 372.218 107.894 372.721 107.989C373.256 108.089 373.218 108.16 372.905 107.968L380.22 96.0318ZM363.25 100.812V151H377.25V100.812H363.25ZM370.25 144H348V158H370.25V144ZM370.375 88.75H375.688V74.75H370.375V88.75ZM375.688 88.75C377.802 88.75 379.934 88.1452 381.796 86.7934C383.584 85.4956 384.732 83.795 385.471 82.1863C386.868 79.1439 387.25 75.4408 387.25 71.8125H373.25C373.25 73.2186 373.168 74.2994 373.045 75.1012C372.919 75.9245 372.776 76.2844 372.748 76.3449C372.726 76.3925 372.924 75.9341 373.571 75.4644C374.292 74.9407 375.094 74.75 375.688 74.75V88.75ZM387.25 71.8125C387.25 69.516 387.162 67.441 386.951 65.6605C386.759 64.0392 386.4 62.0218 385.511 60.2445L372.989 66.5055C372.841 66.2101 372.834 66.0903 372.883 66.2937C372.926 66.4718 372.988 66.797 373.049 67.3082C373.171 68.3402 373.25 69.8173 373.25 71.8125H387.25ZM385.511 60.2445C383.363 55.9479 379.251 54.375 375.5 54.375V68.375C375.596 68.375 375.162 68.3946 374.518 68.0515C373.793 67.6647 373.269 67.0652 372.989 66.5055L385.511 60.2445ZM375.5 54.375H370.375V68.375H375.5V54.375ZM363.375 61.375V81.75H377.375V61.375H363.375ZM418.438 151H411.438V158H418.438V151ZM418.438 62.125H425.438V55.125H418.438V62.125ZM405.375 62.125H398.375V69.125H405.375V62.125ZM405.375 41V34H398.375V41H405.375ZM453.5 41H460.5V34H453.5V41ZM453.5 62.125V69.125H460.5V62.125H453.5ZM440.438 62.125V55.125H433.438V62.125H440.438ZM440.438 151V158H447.438V151H440.438ZM425.438 151V62.125H411.438V151H425.438ZM418.438 55.125H405.375V69.125H418.438V55.125ZM412.375 62.125V41H398.375V62.125H412.375ZM405.375 48H453.5V34H405.375V48ZM446.5 41V62.125H460.5V41H446.5ZM453.5 55.125H440.438V69.125H453.5V55.125ZM433.438 62.125V151H447.438V62.125H433.438ZM440.438 144H418.438V158H440.438V144Z" fill="white" mask="url(#path-1-outside-1_692_6239)"/>
<path d="M204.875 220V110H226.875V201.25H249.5V220H204.875ZM282 221C273.208 221 266.479 218.354 261.812 213.062C257.188 207.729 254.875 200.042 254.875 190V137.75C254.875 128.333 257.167 121.188 261.75 116.312C266.375 111.438 273.125 109 282 109C290.875 109 297.604 111.438 302.188 116.312C306.812 121.188 309.125 128.333 309.125 137.75V190C309.125 200.042 306.792 207.729 302.125 213.062C297.5 218.354 290.792 221 282 221ZM282.188 200.75C285.521 200.75 287.188 197.521 287.188 191.062V137.375C287.188 131.958 285.562 129.25 282.312 129.25C278.646 129.25 276.812 132.021 276.812 137.562V191.188C276.812 194.604 277.229 197.062 278.062 198.562C278.896 200.021 280.271 200.75 282.188 200.75ZM340.688 221C324.979 221 317.125 209.75 317.125 187.25V139.812C317.125 119.271 326.125 109 344.125 109C351.542 109 357.229 110.5 361.188 113.5C365.146 116.458 367.875 120.792 369.375 126.5C370.875 132.208 371.625 139.167 371.625 147.375H350.125V137.625C350.125 135.25 349.792 133.271 349.125 131.688C348.5 130.062 347.167 129.25 345.125 129.25C342.583 129.25 340.896 130.104 340.062 131.812C339.271 133.521 338.875 135.396 338.875 137.438V190.75C338.875 193.708 339.25 196.125 340 198C340.792 199.833 342.312 200.75 344.562 200.75C346.896 200.75 348.438 199.833 349.188 198C349.979 196.125 350.375 193.667 350.375 190.625V174.938H344.5V155.938H371.375V220H362.562L358.812 210.75C354.979 217.583 348.938 221 340.688 221ZM409.125 220V110H430.375V220H409.125ZM439.125 220V110H461.75L471.875 162.688V110H493.125V220H471.625L460.625 165V220H439.125Z" fill="black"/>
</svg>
