<?xml version="1.0" standalone="no"?>
<!DOCTYPE svg PUBLIC "-//W3C//DTD SVG 20010904//EN"
 "http://www.w3.org/TR/2001/REC-SVG-20010904/DTD/svg10.dtd">
<svg version="1.0" xmlns="http://www.w3.org/2000/svg"
 width="88.000000pt" height="88.000000pt" viewBox="0 0 88.000000 88.000000"
 preserveAspectRatio="xMidYMid meet">

<g transform="translate(0.000000,88.000000) scale(0.100000,-0.100000)"
fill="#000000" stroke="none">
<path d="M335 866 c-220 -55 -365 -275 -327 -496 32 -188 174 -330 362 -362
291 -50 552 211 502 502 -43 254 -290 417 -537 356z m185 -231 c0 -16 -31 -63
-45 -69 -43 -16 -48 12 -10 49 21 22 55 34 55 20z m-75 -96 c6 0 29 3 52 7 32
5 49 2 69 -11 l26 -17 -21 -22 c-30 -32 -28 -86 4 -116 22 -21 23 -25 10 -49
-33 -64 -36 -65 -135 -67 l-92 -1 -28 39 c-82 113 -42 261 65 243 22 -3 45 -6
50 -6z"/>
</g>
</svg>
