<?xml version="1.0" standalone="no"?>
<!DOCTYPE svg PUBLIC "-//W3C//DTD SVG 20010904//EN"
 "http://www.w3.org/TR/2001/REC-SVG-20010904/DTD/svg10.dtd">
<svg version="1.0" xmlns="http://www.w3.org/2000/svg"
 width="500.000000pt" height="500.000000pt" viewBox="0 0 500.000000 500.000000"
 preserveAspectRatio="xMidYMid meet">

<g transform="translate(0.000000,500.000000) scale(0.100000,-0.100000)"
fill="#000000" stroke="none">
<path d="M2305 3694 c-177 -31 -326 -91 -475 -189 -127 -85 -205 -157 -293
-273 -126 -168 -194 -323 -228 -520 -85 -500 130 -975 566 -1250 261 -164 642
-215 951 -127 261 74 521 262 675 487 151 221 218 454 206 717 -15 324 -129
591 -347 812 -235 237 -533 361 -865 358 -60 0 -146 -7 -190 -15z m512 -471
c-8 -76 -57 -172 -112 -221 -47 -41 -125 -72 -182 -72 l-35 0 3 78 c6 131 65
213 181 253 29 10 75 18 102 19 l49 0 -6 -57z m-422 -318 c83 -32 122 -31 231
2 126 37 258 39 328 3 27 -14 71 -46 98 -71 58 -54 57 -60 -19 -142 -67 -72
-87 -125 -87 -224 1 -114 33 -177 127 -252 64 -51 67 -56 61 -85 -16 -75 -120
-251 -188 -319 -81 -81 -153 -94 -277 -51 -106 38 -178 36 -302 -4 -72 -24
-108 -31 -133 -26 -75 14 -202 165 -285 337 -107 224 -120 497 -31 661 97 178
281 244 477 171z"/>
</g>
</svg>
